<svg width="18" height="18" viewBox="0 0 18 18" fill="none" xmlns="http://www.w3.org/2000/svg">
<path fill-rule="evenodd" clip-rule="evenodd" d="M4.83335 0.393921C5.29359 0.393921 5.66669 0.767017 5.66669 1.22725V2.06059H12.3334V1.22725C12.3334 0.767017 12.7064 0.393921 13.1667 0.393921C13.6269 0.393921 14 0.767017 14 1.22725V2.06059H14.8334C16.2141 2.06059 17.3334 3.17988 17.3334 4.56059V14.5606C17.3334 15.9413 16.2141 17.0606 14.8334 17.0606H3.16669C1.78597 17.0606 0.666687 15.9413 0.666687 14.5606V4.56059C0.666687 3.17988 1.78598 2.06059 3.16669 2.06059H4.00002V1.22725C4.00002 0.767017 4.37312 0.393921 4.83335 0.393921ZM12.3334 3.72725V4.56059C12.3334 5.02082 12.7064 5.39392 13.1667 5.39392C13.6269 5.39392 14 5.02082 14 4.56059V3.72725H14.8334C15.2936 3.72725 15.6667 4.10035 15.6667 4.56059V7.06059H2.33335V4.56059C2.33335 4.10035 2.70645 3.72725 3.16669 3.72725H4.00002V4.56059C4.00002 5.02082 4.37312 5.39392 4.83335 5.39392C5.29359 5.39392 5.66669 5.02082 5.66669 4.56059V3.72725H12.3334ZM2.33335 8.72725V14.5606C2.33335 15.0208 2.70645 15.3939 3.16669 15.3939H14.8334C15.2936 15.3939 15.6667 15.0208 15.6667 14.5606V8.72725H2.33335Z" fill="#222222"/>
</svg>
