<?xml version="1.0" encoding="UTF-8"?>
<svg width="700pt" height="700pt" version="1.1" fill="none" viewBox="0 0 700 700" xmlns="http://www.w3.org/2000/svg">
 <g>
  <path d="m528.92 114.86h-20.555l-37.184-49.559c-4.5938-6.0469-13.215-7.3359-19.375-2.8008-0.95312 0.78516-1.8477 1.7344-2.6875 2.8008l-37.242 49.559h-158.25c-22.734 0-41.215 18.48-41.215 41.273v13.777l-41.332-0.003906c-22.848 0-41.328 18.48-41.328 41.328v192.64c0 22.793 18.48 41.328 41.328 41.328h20.664l37.07 49.559c4.5938 6.0469 13.215 7.2812 19.375 2.7422 0.95703-0.78125 1.9648-1.7305 2.6914-2.7969l37.242-49.504h158.26c22.734 0 41.328-18.535 41.328-41.328l-0.003906-13.719h41.215c22.848 0 41.328-18.48 41.328-41.328v-192.7c0.058594-22.793-18.422-41.273-41.324-41.273zm-68.77 289.02c0 7.6172-6.2148 13.777-13.777 13.777h-158.25c-8.625 0-16.855 4.1445-22.008 11.031l-26.266 34.777-26.152-34.777c-5.207-6.9453-13.328-11.031-21.953-11.031h-20.664c-7.5586 0-13.777-6.1055-13.777-13.777v-192.64c0-7.6172 6.2148-13.719 13.777-13.719h275.3c7.5586 0 13.777 6.1055 13.777 13.719zm82.543-55.047c0 7.6172-6.1055 13.777-13.777 13.777h-41.215v-151.43c0-22.848-18.594-41.328-41.328-41.328h-206.53v-13.719c0-7.6172 6.2148-13.777 13.777-13.777h158.26c8.625 0 16.855-4.0898 22.121-11.031l26.152-34.832 26.152 34.832c5.0898 7 13.324 11.031 22.059 11.031h20.551c7.6719 0 13.777 6.1602 13.777 13.777z" fill="currentColor"/>
  <path d="m336.22 280c0-7.6172-6.1055-13.777-13.664-13.777h-110.15c-7.6719 0-13.777 6.1602-13.777 13.777s6.1055 13.832 13.777 13.832h110.15c7.5625 0 13.664-6.2148 13.664-13.832z"/>
  <path d="m405.11 321.72h-110.1c-7.5586 0-13.777 6.1602-13.777 13.777 0 7.6172 6.2148 13.777 13.777 13.777h110.15c7.5586 0 13.777-6.1602 13.777-13.777 0-7.6172-6.2734-13.777-13.832-13.777z"/>
 </g>
</svg>
