<svg width="17" height="14" viewBox="0 0 17 14" fill="none" xmlns="http://www.w3.org/2000/svg">
<path fill-rule="evenodd" clip-rule="evenodd" d="M4.50061 10.4383C4.85524 10.1546 5.29586 10 5.75 10H13.75C14.3023 10 14.75 9.55228 14.75 9V3C14.75 2.44772 14.3023 2 13.75 2H3.75C3.19772 2 2.75 2.44772 2.75 3V11.8388L4.50061 10.4383ZM5.75 12H13.75C15.4069 12 16.75 10.6569 16.75 9V3C16.75 1.34315 15.4069 0 13.75 0H3.75C2.09315 0 0.75 1.34315 0.75 3V11.8388C0.75 13.5158 2.68986 14.4481 3.99939 13.4005L5.75 12Z" fill="#9E9E9E"/>
</svg>
