<?xml version="1.0" encoding="UTF-8"?>
<svg width="700pt" height="700pt" fill="none" version="1.1" viewBox="0 0 700 700" xmlns="http://www.w3.org/2000/svg" xmlns:xlink="http://www.w3.org/1999/xlink">
 <defs>
  <symbol id="r" overflow="visible">
   <path d="m0.34375-0.03125c-0.023438 0.011719-0.042969 0.023438-0.0625 0.03125-0.023438 0.0078125-0.042969 0.015625-0.0625 0.015625-0.054688 0-0.10156-0.015625-0.14062-0.046875-0.03125-0.039062-0.046875-0.09375-0.046875-0.15625 0-0.050781 0.015625-0.09375 0.046875-0.125 0.039063-0.039062 0.085937-0.0625 0.14062-0.0625 0.019531 0 0.039062 0.007812 0.0625 0.015625 0.019531 0 0.039062 0.007813 0.0625 0.015625v0.078125c-0.023438-0.019531-0.042969-0.03125-0.0625-0.03125-0.011719-0.007813-0.027344-0.015625-0.046875-0.015625-0.03125 0-0.058594 0.011719-0.078125 0.03125-0.023438 0.023438-0.03125 0.054688-0.03125 0.09375 0 0.042969 0.007812 0.074219 0.03125 0.09375 0.019531 0.023438 0.046875 0.03125 0.078125 0.03125h0.046875c0.019531-0.0078125 0.039062-0.019531 0.0625-0.03125z"/>
  </symbol>
  <symbol id="c" overflow="visible">
   <path d="m0.25-0.20312h-0.03125c0-0.007813-0.007812-0.015625-0.015625-0.015625-0.023437 0-0.039063 0.011719-0.046875 0.03125-0.011719 0.011719-0.015625 0.03125-0.015625 0.0625v0.125h-0.09375v-0.28125h0.09375v0.046875c0.007813-0.019531 0.019531-0.03125 0.03125-0.03125 0.007813-0.007813 0.023437-0.015625 0.046875-0.015625h0.015625 0.015625z"/>
  </symbol>
  <symbol id="a" overflow="visible">
   <path d="m0.3125-0.14062v0.03125h-0.20312c0.007813 0.023438 0.019531 0.039062 0.03125 0.046875h0.046875 0.0625c0.019531-0.0078125 0.039062-0.019531 0.0625-0.03125v0.078125c-0.023438 0-0.042969 0.0078125-0.0625 0.015625-0.023438 0.0078125-0.042969 0.015625-0.0625 0.015625-0.054688 0-0.09375-0.015625-0.125-0.046875-0.023438-0.03125-0.03125-0.066406-0.03125-0.10938 0-0.039063 0.0078125-0.070313 0.03125-0.09375 0.03125-0.03125 0.066406-0.046875 0.10938-0.046875 0.039063 0 0.070313 0.015625 0.09375 0.046875 0.03125 0.023437 0.046875 0.054687 0.046875 0.09375zm-0.078125-0.03125c0-0.019531-0.007813-0.03125-0.015625-0.03125-0.011719-0.007813-0.027344-0.015625-0.046875-0.015625-0.011719 0-0.023437 0.007812-0.03125 0.015625-0.011719 0-0.023437 0.011719-0.03125 0.03125z"/>
  </symbol>
  <symbol id="g" overflow="visible">
   <path d="m0.17188-0.125c-0.023437 0-0.039063 0.007812-0.046875 0.015625-0.011719 0-0.015625 0.007813-0.015625 0.015625 0 0.011719 0.003906 0.023438 0.015625 0.03125h0.03125c0.019531 0 0.035156-0.0039062 0.046875-0.015625 0.007813-0.0078125 0.015625-0.019531 0.015625-0.03125v-0.015625zm0.125-0.03125v0.15625h-0.078125v-0.046875c-0.011719 0.023438-0.027344 0.039062-0.046875 0.046875-0.011719 0.0078125-0.027344 0.015625-0.046875 0.015625-0.03125 0-0.058594-0.011719-0.078125-0.03125-0.011719-0.019531-0.015625-0.046875-0.015625-0.078125s0.0078125-0.050781 0.03125-0.0625c0.019531-0.007812 0.050781-0.015625 0.09375-0.015625h0.0625v-0.015625c0-0.007812-0.007812-0.015625-0.015625-0.015625-0.011719-0.007813-0.03125-0.015625-0.0625-0.015625h-0.046875c-0.023438 0-0.039062 0.007812-0.046875 0.015625v-0.0625c0.019531-0.007813 0.039062-0.015625 0.0625-0.015625h0.046875c0.050781 0 0.085938 0.011719 0.10938 0.03125 0.019531 0.023438 0.03125 0.054688 0.03125 0.09375z"/>
  </symbol>
  <symbol id="b" overflow="visible">
   <path d="m0.14062-0.35938v0.078125h0.09375v0.0625h-0.09375v0.125 0.03125h0.03125 0.046875v0.0625h-0.0625c-0.042969 0-0.074219-0.0039062-0.09375-0.015625-0.011719-0.019531-0.015625-0.046875-0.015625-0.078125v-0.125h-0.03125v-0.0625h0.03125v-0.078125z"/>
  </symbol>
  <symbol id="i" overflow="visible">
   <path d="m0.23438-0.23438v-0.15625h0.078125v0.39062h-0.078125v-0.046875c-0.011719 0.023438-0.027344 0.039062-0.046875 0.046875-0.011719 0.0078125-0.027344 0.015625-0.046875 0.015625-0.03125 0-0.058594-0.015625-0.078125-0.046875-0.023438-0.03125-0.03125-0.066406-0.03125-0.10938 0-0.039063 0.0078125-0.070313 0.03125-0.09375 0.019531-0.03125 0.046875-0.046875 0.078125-0.046875 0.019531 0 0.035156 0.007812 0.046875 0.015625 0.019531 0 0.035156 0.011719 0.046875 0.03125zm-0.0625 0.17188c0.019531 0 0.035156-0.0039062 0.046875-0.015625 0.007812-0.0078125 0.015625-0.03125 0.015625-0.0625 0-0.019531-0.007813-0.035156-0.015625-0.046875-0.011719-0.019531-0.027344-0.03125-0.046875-0.03125-0.023437 0-0.039063 0.011719-0.046875 0.03125-0.011719 0.011719-0.015625 0.027344-0.015625 0.046875 0 0.03125 0.003906 0.054688 0.015625 0.0625 0.007812 0.011719 0.023438 0.015625 0.046875 0.015625z"/>
  </symbol>
  <symbol id="h" overflow="visible">
   <path d="m0.1875-0.0625c0.019531 0 0.035156-0.0039062 0.046875-0.015625 0.007813-0.0078125 0.015625-0.03125 0.015625-0.0625 0-0.019531-0.007812-0.035156-0.015625-0.046875-0.011719-0.019531-0.027344-0.03125-0.046875-0.03125-0.023438 0-0.039062 0.011719-0.046875 0.03125v0.046875 0.0625c0.007813 0.011719 0.023437 0.015625 0.046875 0.015625zm-0.046875-0.17188c0.007813-0.019531 0.019531-0.03125 0.03125-0.03125 0.019531-0.007813 0.035156-0.015625 0.046875-0.015625 0.039062 0 0.070312 0.015625 0.09375 0.046875 0.019531 0.023437 0.03125 0.054687 0.03125 0.09375 0 0.042969-0.011719 0.078125-0.03125 0.10938-0.023438 0.03125-0.054688 0.046875-0.09375 0.046875-0.011719 0-0.027344-0.0078125-0.046875-0.015625-0.011719-0.0078125-0.023437-0.023438-0.03125-0.046875v0.046875h-0.09375v-0.39062h0.09375z"/>
  </symbol>
  <symbol id="f" overflow="visible">
   <path d="m0.015625-0.28125h0.078125l0.078125 0.1875 0.0625-0.1875h0.09375l-0.125 0.3125c-0.011719 0.03125-0.027344 0.050781-0.046875 0.0625-0.011719 0.007812-0.027344 0.015625-0.046875 0.015625h-0.0625v-0.0625h0.03125 0.03125c0.007813 0 0.015625-0.011719 0.015625-0.03125z"/>
  </symbol>
  <symbol id="e" overflow="visible">
   <path d="m0.046875-0.10938v-0.17188h0.078125v0.03125 0.0625 0.03125 0.0625c0.007812 0 0.015625 0.0078125 0.015625 0.015625v0.015625h0.03125c0.019531 0 0.035156-0.0039062 0.046875-0.015625 0.007812-0.019531 0.015625-0.039063 0.015625-0.0625v-0.14062h0.078125v0.28125h-0.078125v-0.046875c-0.023437 0.023438-0.039063 0.039062-0.046875 0.046875-0.011719 0.0078125-0.027344 0.015625-0.046875 0.015625-0.03125 0-0.058594-0.011719-0.078125-0.03125-0.011719-0.03125-0.015625-0.0625-0.015625-0.09375z"/>
  </symbol>
  <symbol id="q" overflow="visible">
   <path d="m0.21875-0.39062v0.0625h-0.046875c-0.011719 0-0.023437 0.007813-0.03125 0.015625v0.015625 0.015625h0.078125v0.0625h-0.078125v0.21875h-0.078125v-0.21875h-0.046875v-0.0625h0.046875v-0.015625c0-0.03125 0.0039062-0.050781 0.015625-0.0625 0.019531-0.019531 0.046875-0.03125 0.078125-0.03125z"/>
  </symbol>
  <symbol id="d" overflow="visible">
   <path d="m0.17188-0.21875c-0.023437 0-0.039063 0.007812-0.046875 0.015625-0.011719 0.011719-0.015625 0.03125-0.015625 0.0625s0.003906 0.054688 0.015625 0.0625c0.007812 0.011719 0.023438 0.015625 0.046875 0.015625 0.019531 0 0.035156-0.0039062 0.046875-0.015625 0.007812-0.0078125 0.015625-0.03125 0.015625-0.0625s-0.007813-0.050781-0.015625-0.0625c-0.011719-0.007813-0.027344-0.015625-0.046875-0.015625zm0-0.0625c0.050781 0 0.085937 0.015625 0.10938 0.046875 0.03125 0.023437 0.046875 0.054687 0.046875 0.09375 0 0.042969-0.015625 0.078125-0.046875 0.10938-0.023438 0.03125-0.058594 0.046875-0.10938 0.046875-0.042969 0-0.078125-0.015625-0.10938-0.046875-0.023438-0.03125-0.03125-0.066406-0.03125-0.10938 0-0.039063 0.0078125-0.070313 0.03125-0.09375 0.03125-0.03125 0.066406-0.046875 0.10938-0.046875z"/>
  </symbol>
  <symbol id="p" overflow="visible">
   <path d="m0.29688-0.23438 0.03125-0.03125c0.019531-0.007813 0.039063-0.015625 0.0625-0.015625 0.03125 0 0.050781 0.011719 0.0625 0.03125 0.019531 0.023438 0.03125 0.046875 0.03125 0.078125v0.17188h-0.09375v-0.14062-0.015625c0-0.019531-0.007813-0.035156-0.015625-0.046875 0-0.007813-0.007812-0.015625-0.015625-0.015625-0.011719 0-0.023437 0.011719-0.03125 0.03125-0.011719 0.011719-0.015625 0.027344-0.015625 0.046875v0.14062h-0.09375v-0.14062c0-0.03125-0.007812-0.050781-0.015625-0.0625 0-0.007813-0.007813-0.015625-0.015625-0.015625-0.023438 0-0.039062 0.011719-0.046875 0.03125v0.046875 0.14062h-0.09375v-0.28125h0.09375v0.046875c0.007813-0.019531 0.019531-0.03125 0.03125-0.03125 0.007813-0.007813 0.023437-0.015625 0.046875-0.015625 0.019531 0 0.035156 0.007812 0.046875 0.015625 0.007813 0.011719 0.019531 0.023437 0.03125 0.03125z"/>
  </symbol>
  <symbol id="o" overflow="visible">
   <path d="m0.32812-0.17188v0.17188h-0.09375v-0.125-0.046875c0-0.007813-0.007813-0.019531-0.015625-0.03125h-0.015625c0-0.007813-0.007813-0.015625-0.015625-0.015625-0.011719 0-0.023438 0.011719-0.03125 0.03125-0.011719 0.011719-0.015625 0.027344-0.015625 0.046875v0.14062h-0.09375v-0.39062h0.09375v0.15625c0.007813-0.019531 0.019531-0.03125 0.03125-0.03125 0.019531-0.007813 0.035156-0.015625 0.046875-0.015625 0.03125 0 0.054688 0.011719 0.078125 0.03125 0.019531 0.023438 0.03125 0.046875 0.03125 0.078125z"/>
  </symbol>
  <symbol id="n" overflow="visible">
   <path d="m0.046875-0.375h0.10938l0.125 0.25v-0.25h0.09375v0.375h-0.10938l-0.125-0.25v0.25h-0.09375z"/>
  </symbol>
  <symbol id="m" overflow="visible">
   <path d="m0.32812-0.17188v0.17188h-0.09375v-0.125-0.046875c0-0.007813-0.007813-0.019531-0.015625-0.03125h-0.015625c0-0.007813-0.007813-0.015625-0.015625-0.015625-0.011719 0-0.023438 0.011719-0.03125 0.03125-0.011719 0.011719-0.015625 0.027344-0.015625 0.046875v0.14062h-0.09375v-0.28125h0.09375v0.046875c0.007813-0.019531 0.019531-0.03125 0.03125-0.03125 0.019531-0.007813 0.035156-0.015625 0.046875-0.015625 0.03125 0 0.054688 0.011719 0.078125 0.03125 0.019531 0.023438 0.03125 0.046875 0.03125 0.078125z"/>
  </symbol>
  <symbol id="l" overflow="visible">
   <path d="m0.046875-0.375h0.15625c0.050781 0 0.085937 0.011719 0.10938 0.03125 0.019531 0.023438 0.03125 0.054688 0.03125 0.09375 0 0.042969-0.011719 0.074219-0.03125 0.09375-0.023438 0.023438-0.058594 0.03125-0.10938 0.03125h-0.0625v0.125h-0.09375zm0.09375 0.078125v0.09375h0.0625 0.03125c0.007813-0.007813 0.015625-0.023437 0.015625-0.046875 0-0.019531-0.007812-0.03125-0.015625-0.03125-0.011719-0.007812-0.023437-0.015625-0.03125-0.015625z"/>
  </symbol>
  <symbol id="k" overflow="visible">
   <path d="m0.046875-0.28125h0.09375v0.26562c0 0.039062-0.011719 0.070312-0.03125 0.09375-0.023438 0.019531-0.046875 0.03125-0.078125 0.03125h-0.046875v-0.0625h0.015625c0.019531 0 0.03125-0.0078125 0.03125-0.015625 0.0078125 0 0.015625-0.015625 0.015625-0.046875zm0-0.10938h0.09375v0.078125h-0.09375z"/>
  </symbol>
  <symbol id="j" overflow="visible">
   <path d="m0.26562-0.26562v0.0625h-0.03125c-0.011719-0.007813-0.027344-0.015625-0.046875-0.015625-0.023438 0-0.042969 0.011719-0.0625 0.03125-0.011719 0.011719-0.015625 0.027344-0.015625 0.046875 0 0.023437 0.003906 0.042969 0.015625 0.0625 0.019531 0.011719 0.039062 0.015625 0.0625 0.015625h0.046875c0.007813-0.0078125 0.019531-0.015625 0.03125-0.015625v0.0625c-0.011719 0.011719-0.027344 0.015625-0.046875 0.015625-0.011719 0.0078125-0.023438 0.015625-0.03125 0.015625-0.054688 0-0.09375-0.015625-0.125-0.046875-0.023438-0.03125-0.03125-0.066406-0.03125-0.10938 0-0.039063 0.0078125-0.070313 0.03125-0.09375 0.03125-0.03125 0.070312-0.046875 0.125-0.046875h0.03125c0.019531 0 0.035156 0.007812 0.046875 0.015625z"/>
  </symbol>
 </defs>
 <g>
  <path d="m187.2 20.934 162.55 162.64 162.64-162.64c63.609-63.609 161.04 32.105 96.52 96.621l-162.55 162.55 162.55 162.64c63.508 63.406-33.113 160.03-96.52 96.52l-162.64-162.55-162.55 162.55c-63.508 63.508-160.03-33.113-96.621-96.52l162.64-162.64-162.64-162.55c-63.406-63.508 33.113-160.13 96.621-96.621z" fill="currentColor"/>
  <use x="69.847656" y="561.507812" xlink:href="#r"/>
  <use x="70.21875" y="561.507812" xlink:href="#c"/>
  <use x="70.464844" y="561.507812" xlink:href="#a"/>
  <use x="70.808594" y="561.507812" xlink:href="#g"/>
  <use x="71.148437" y="561.507812" xlink:href="#b"/>
  <use x="71.386719" y="561.507812" xlink:href="#a"/>
  <use x="71.730469" y="561.507812" xlink:href="#i"/>
  <use x="72.265625" y="561.507812" xlink:href="#h"/>
  <use x="72.625" y="561.507812" xlink:href="#f"/>
  <use x="73.128906" y="561.507812" xlink:href="#g"/>
  <use x="73.46875" y="561.507812" xlink:href="#f"/>
  <use x="73.796875" y="561.507812" xlink:href="#e"/>
  <use x="69.847656" y="562.011719" xlink:href="#q"/>
  <use x="70.066406" y="562.011719" xlink:href="#c"/>
  <use x="70.316406" y="562.011719" xlink:href="#d"/>
  <use x="70.660156" y="562.011719" xlink:href="#p"/>
  <use x="71.363281" y="562.011719" xlink:href="#b"/>
  <use x="71.601562" y="562.011719" xlink:href="#o"/>
  <use x="71.960938" y="562.011719" xlink:href="#a"/>
  <use x="72.476562" y="562.011719" xlink:href="#n"/>
  <use x="72.898437" y="562.011719" xlink:href="#d"/>
  <use x="73.242187" y="562.011719" xlink:href="#e"/>
  <use x="73.601562" y="562.011719" xlink:href="#m"/>
  <use x="74.136719" y="562.011719" xlink:href="#l"/>
  <use x="74.503906" y="562.011719" xlink:href="#c"/>
  <use x="74.753906" y="562.011719" xlink:href="#d"/>
  <use x="75.097656" y="562.011719" xlink:href="#k"/>
  <use x="75.269531" y="562.011719" xlink:href="#a"/>
  <use x="75.613281" y="562.011719" xlink:href="#j"/>
  <use x="75.910156" y="562.011719" xlink:href="#b"/>
 </g>
</svg>
