<svg width="12" height="14" viewBox="0 0 12 14" fill="none" xmlns="http://www.w3.org/2000/svg">
<path fill-rule="evenodd" clip-rule="evenodd" d="M9.14131 8.20376C9.69364 7.51474 10.0231 6.64262 10.0231 5.6899C10.0231 3.46795 8.2219 1.66671 5.99995 1.66671C3.77801 1.66671 1.97677 3.46795 1.97677 5.6899C1.97677 6.64254 2.3062 7.51458 2.85845 8.20357V8.20357L2.86242 8.20852C2.97935 8.3542 3.08759 8.50756 3.20005 8.65666C3.39538 8.91562 3.67081 9.27928 3.99084 9.69752C4.5872 10.4769 5.33216 11.4377 6.00043 12.2626C6.67079 11.4359 7.41746 10.4737 8.01499 9.69325C8.33559 9.27453 8.61145 8.91052 8.80706 8.65133C8.91896 8.50307 9.02514 8.34867 9.14131 8.20376ZM10.1836 9.03928C10.1836 9.03928 10.1824 9.0408 10.1816 9.04187C10.1475 9.08753 9.83399 9.5064 9.37972 10.103C8.70579 10.988 7.72203 12.2641 6.88094 13.2929C6.42084 13.8557 5.57923 13.8555 5.11941 13.2925C3.68184 11.5324 1.82261 9.04312 1.82261 9.04312L1.81827 9.03772C1.08315 8.12069 0.643433 6.95664 0.643433 5.6899C0.643433 2.73157 3.04163 0.333374 5.99995 0.333374C8.95828 0.333374 11.3565 2.73157 11.3565 5.6899C11.3565 6.47806 11.1862 7.22646 10.8806 7.90035C10.6956 8.30802 10.4611 8.68842 10.1847 9.03385L10.1828 9.03627L10.1816 9.03772H10.1847L10.1836 9.03928Z" fill="#F81F59"/>
</svg>
