<svg width="20" height="20" viewBox="0 0 20 20" fill="none" xmlns="http://www.w3.org/2000/svg">
<path fill-rule="evenodd" clip-rule="evenodd" d="M6.8247 4.99841L5.31706 2.94255C5.21454 2.80274 5.02079 2.76711 4.87523 2.86129C2.90281 4.13757 2.36062 6.08717 3.15195 7.52437C4.01737 9.09614 5.35213 11.0237 7.3995 13.0711C9.44686 15.1185 11.3745 16.4532 12.9462 17.3187C14.3834 18.11 16.333 17.5678 17.6093 15.5954C17.7035 15.4498 17.6679 15.2561 17.5281 15.1535L15.4722 13.6459C15.1699 13.4242 14.7689 13.3902 14.4336 13.5579L13.6142 13.9676C12.9172 14.3161 11.9617 14.4385 11.0573 13.9732C10.4527 13.6622 9.52071 13.071 8.46016 12.0104C7.39961 10.9499 6.80844 10.0179 6.49736 9.41328C6.03207 8.50885 6.1545 7.55342 6.50299 6.85644L6.91272 6.03699C7.08038 5.70167 7.0464 5.30073 6.8247 4.99841ZM3.78873 1.18215C1.24822 2.82601 -0.0595384 5.83829 1.39996 8.48902C2.35249 10.219 3.79932 12.2994 5.98528 14.4853C8.17124 16.6713 10.2516 18.1181 11.9816 19.0706C14.6323 20.5301 17.6446 19.2224 19.2884 16.6819C19.958 15.647 19.7047 14.2696 18.7108 13.5407L16.6549 12.0331C15.7479 11.368 14.5451 11.266 13.5392 11.769L12.7197 12.1788C12.4825 12.2974 12.2081 12.3161 11.9723 12.1948C11.5426 11.9737 10.7812 11.503 9.87437 10.5962C8.96757 9.68943 8.49686 8.928 8.27581 8.49833C8.15448 8.26249 8.17324 7.98809 8.29184 7.75087L8.70157 6.93142C9.20455 5.92545 9.10262 4.72265 8.43751 3.81569L6.92987 1.75982C6.20098 0.765875 4.82356 0.512562 3.78873 1.18215Z" fill="#6F767E"/>
</svg>
