<svg xmlns="http://www.w3.org/2000/svg" width="830" height="344.847" viewBox="0 0 830 344.847">
  <g id="Group_5407" data-name="Group 5407" transform="translate(-3400 -3036.041)">
    <text id="Weiß_Schriftzug" data-name="Weiß Schriftzug" transform="translate(3400 3335.888)" fill="#ebebeb" font-size="150" font-family="FuturaPT-Bold, Futura PT" font-weight="700"><tspan x="0" y="0">everygroup</tspan></text>
    <g id="Group_5406" data-name="Group 5406" transform="translate(-1623.098 2142.44)">
      <g id="logo-n2" transform="translate(5345.278 893.601)">
        <path id="Path_39321" data-name="Path 39321" d="M155.123,36.805a11.735,11.735,0,0,0,1.62,5.957,16.388,16.388,0,0,0,1.033,1.513A78.513,78.513,0,0,1,171.33,88.364c.1,45.031-38.273,81.6-85.676,81.652-41.342.043-75.806-27.81-83.848-64.822A77.771,77.771,0,0,1,0,88.492C.042,48.214,20.249,5.347,84.347,5.816c7.539-.008,17.688,2.228,23.254,3.737,9.056.118,27.648-2.395,31.875-2.6C151.294,4.549,158.249.49,158.249.49A6.72,6.72,0,0,1,160.172,0a4.213,4.213,0,0,1,2.181.643A3.748,3.748,0,0,1,164.11,3.9a6.231,6.231,0,0,1-.248,1.319l-.111.391Z" transform="matrix(-0.995, -0.105, 0.105, -0.995, 170.392, 186.994)" fill="#ebebeb"/>
        <path id="Path_39316" data-name="Path 39316" d="M123.39,99.718a12.767,12.767,0,0,1,.8-1.183,61.58,61.58,0,0,0,10.464-34.488C134.665,28.8,104.8.113,67.97,0,35.852-.1,7.571,21.458,1.378,50.417A61.236,61.236,0,0,0,0,63.487c.1,35.286,27.277,64.543,64.1,64.656a111.068,111.068,0,0,0,21.158-2.508c4.322-1.172,4.8-.779,4.8-.779s10.5-1.993,14.313.2,2.31,1.566,3.553,2.572,8.543,6.261,10.875,4.3.683-7.867-.774-12.332C116.088,115.892,122.59,101.092,123.39,99.718Z" transform="translate(18.34 33.072) rotate(-7)" fill="#fff"/>
      </g>
    </g>
  </g>
</svg>
