<?xml version="1.0" encoding="UTF-8"?>
<svg width="700pt" height="700pt" version="1.1" fill="none" viewBox="0 0 700 700" xmlns="http://www.w3.org/2000/svg">
 <path d="m477.71 440.71c-38.074 30.828-86.57 49.293-139.38 49.293-122.42 0-221.66-99.242-221.66-221.67 0-122.42 99.242-221.66 221.66-221.66 122.43 0 221.67 99.242 221.67 221.66 0 52.809-18.465 101.3-49.293 139.38l65.793 65.789c9.1094 9.1133 9.1094 23.887 0 33-9.1133 9.1094-23.887 9.1094-33 0zm-314.38-172.38c0-96.648 78.352-175 175-175 96.648 0 175 78.352 175 175 0 46.969-18.504 89.617-48.617 121.05-1.0078 0.72656-1.9727 1.543-2.8789 2.4531-0.91016 0.90625-1.7266 1.8711-2.4531 2.8789-31.434 30.113-74.082 48.617-121.05 48.617-96.648 0-175-78.352-175-175z" fill="currentColor"/>
</svg>
