<svg width="20" height="19" viewBox="0 0 20 19" fill="none" xmlns="http://www.w3.org/2000/svg">
<path fill-rule="evenodd" clip-rule="evenodd" d="M16.25 9C16.25 12.866 13.116 16 9.25 16C5.38401 16 2.25 12.866 2.25 9C2.25 5.13401 5.38401 2 9.25 2C13.116 2 16.25 5.13401 16.25 9ZM16.2819 14.6177C17.5135 13.078 18.25 11.125 18.25 9C18.25 4.02944 14.2206 0 9.25 0C4.27944 0 0.25 4.02944 0.25 9C0.25 13.9706 4.27944 18 9.25 18C11.375 18 13.328 17.2635 14.8677 16.0319L17.5429 18.7071C17.9334 19.0976 18.5666 19.0976 18.9571 18.7071C19.3476 18.3166 19.3476 17.6834 18.9571 17.2929L16.2819 14.6177Z" fill="#9E9E9E"/>
</svg>
