<svg width="18" height="16" viewBox="0 0 18 16" fill="none" xmlns="http://www.w3.org/2000/svg">
<path d="M7.3901 1.31922C7.92779 -0.22766 10.1154 -0.227663 10.6531 1.31921L11.4697 3.66844C11.7069 4.35084 12.3438 4.81352 13.0661 4.82824L15.5526 4.87891C17.19 4.91228 17.866 6.99286 16.561 7.98225L14.5791 9.48482C14.0034 9.92128 13.7601 10.6699 13.9693 11.3614L14.6895 13.742C15.1638 15.3095 13.3939 16.5953 12.0497 15.6599L10.0082 14.2393C9.4152 13.8267 8.62803 13.8267 8.03503 14.2393L5.99356 15.6599C4.64932 16.5953 2.87947 15.3095 3.3537 13.742L4.07391 11.3614C4.28311 10.6699 4.03986 9.92128 3.46417 9.48482L1.48226 7.98225C0.177248 6.99286 0.853267 4.91228 2.49059 4.87891L4.97718 4.82824C5.69947 4.81352 6.33631 4.35084 6.57351 3.66844L7.3901 1.31922Z" fill="#FFBB0B"/>
</svg>
