<svg width="20" height="17" viewBox="0 0 20 17" fill="none" xmlns="http://www.w3.org/2000/svg">
<path fill-rule="evenodd" clip-rule="evenodd" d="M3.48618 1.51266H17.2048C17.5685 1.51279 17.9172 1.65735 18.1745 1.91458C18.4317 2.17167 18.5762 2.52053 18.5764 2.88425V13.8591L14.9464 10.6298C14.8343 10.518 14.6871 10.4485 14.5295 10.433C14.372 10.4174 14.2139 10.4568 14.0822 10.5446L10.433 12.9767L5.34344 7.88741C5.24162 7.78559 5.11047 7.71834 4.96831 7.69516C4.8263 7.67212 4.68054 7.69422 4.55167 7.75853L2.11583 10.4287V2.88414C2.11583 2.52028 2.26038 2.17128 2.51775 1.91392C2.77511 1.6567 3.12411 1.51214 3.48797 1.51214L3.48618 1.51266ZM17.2048 0.140659C17.9325 0.140391 18.6306 0.429234 19.1454 0.943816C19.6602 1.4584 19.9493 2.15637 19.9493 2.88425V13.8591C19.9493 14.5869 19.6603 15.2847 19.1457 15.7993C18.6312 16.3137 17.9333 16.6029 17.2057 16.6029H3.48608C2.75848 16.6026 2.06089 16.3135 1.54658 15.7989C1.03227 15.2845 0.743284 14.5867 0.743284 13.8591V2.88425C0.743284 2.15678 1.03226 1.45905 1.54658 0.944467C2.06089 0.430019 2.75848 0.140762 3.48608 0.140625L17.2048 0.140659ZM11.7174 6.31404C11.7174 6.85983 11.9341 7.38327 12.3201 7.76924C12.7059 8.15507 13.2293 8.37183 13.7751 8.37183C14.3209 8.37183 14.8444 8.15506 15.2303 7.76924C15.6162 7.38327 15.8331 6.85983 15.8331 6.31404C15.8331 5.76824 15.6162 5.24481 15.2303 4.85883C14.8444 4.473 14.3209 4.25611 13.7751 4.25611C13.2293 4.25611 12.7059 4.473 12.3201 4.85883C11.9341 5.24481 11.7174 5.76824 11.7174 6.31404Z" fill="white"/>
</svg>
