<svg width="18" height="16" viewBox="0 0 18 16" fill="none" xmlns="http://www.w3.org/2000/svg">
<path fill-rule="evenodd" clip-rule="evenodd" d="M7.64392 3.512C6.42901 2.2738 4.46592 2.2738 3.25101 3.512C2.02744 4.75902 2.02744 6.78728 3.25101 8.0343L8.40517 13.2873C8.73184 13.6202 9.26815 13.6202 9.59482 13.2873L14.749 8.0343C15.9726 6.78728 15.9726 4.75902 14.749 3.512C13.5341 2.2738 11.571 2.2738 10.3561 3.512L9.59482 4.28785C9.43811 4.44757 9.22375 4.53755 9 4.53755C8.77624 4.53755 8.56188 4.44757 8.40517 4.28785L7.64392 3.512ZM8.83356 2.34473L9 2.51436L9.16643 2.34473C11.0347 0.440672 14.0704 0.440672 15.9386 2.34473C17.7982 4.23997 17.7982 7.30633 15.9386 9.20157L10.7845 14.4545C9.80446 15.4533 8.19554 15.4533 7.21553 14.4545L2.06136 9.20157C0.201765 7.30633 0.201765 4.23997 2.06136 2.34473C3.92961 0.440672 6.96531 0.440672 8.83356 2.34473Z" fill="white"/>
</svg>
